# 3ds Max Wavefront OBJ Exporter v0.99 - (c)2007 guruware
# File Created: 08.12.2025 21:57:50

#
# object bunny
#

v  0.4129 2.8702 -1.5286
v  1.6521 3.2670 -1.3762
v  0.9466 2.8103 -2.0884
v  1.6954 0.3651 2.3055
v  2.3181 0.6795 1.9716
v  2.3090 1.1996 2.3154
v  0.5513 7.8388 -2.0988
v  -0.0163 7.4367 -1.6522
v  0.4361 7.7846 -1.0206
v  -0.7031 4.3993 1.1227
v  -0.8141 3.4389 1.8626
v  0.2618 4.3375 1.3195
v  -0.1854 1.9148 -1.2385
v  -1.3167 3.1651 -1.6378
v  2.4218 2.7395 -1.5451
v  2.9530 2.1498 -1.3111
v  -3.1539 3.8228 1.6260
v  -3.3888 4.3105 1.7696
v  -3.3767 4.0101 0.4160
v  2.8913 1.2238 -1.1775
v  3.6971 1.4422 0.0185
v  3.0596 0.5605 -0.2828
v  -1.1127 7.4897 -3.3784
v  -0.3860 6.7177 -3.4672
v  -1.2667 6.2495 -3.2884
v  2.4044 0.6503 -1.0793
v  1.9303 1.7598 -1.7325
v  -1.1864 1.0660 1.3241
v  -0.9896 0.3584 0.6302
v  -1.1889 0.7396 1.6585
v  1.0824 0.8393 -1.6213
v  0.3645 1.9940 -2.0935
v  -1.8588 0.4786 0.3882
v  -1.7594 -0.0048 0.7832
v  -0.9654 0.6969 -0.6078
v  0.6058 0.7140 -1.4103
v  -0.7404 0.2590 -1.4404
v  -1.3743 5.3870 -0.9153
v  -1.0192 5.4606 -0.6933
v  -0.8973 4.6244 -0.9422
v  4.3479 1.9295 0.5546
v  4.2758 1.4914 1.4833
v  4.4384 1.3139 0.6315
v  -0.5390 7.8447 -3.1603
v  -1.4822 5.6509 -1.5952
v  -1.3744 6.1364 -1.2099
v  -3.4743 4.5667 0.3548
v  -2.9712 4.2020 -0.6448
v  -0.9650 6.1758 0.1250
v  -0.0708 6.6938 -0.3395
v  -1.2099 6.4059 0.0622
v  -0.2715 0.1395 2.5519
v  0.5758 0.7369 2.3831
v  -0.4198 0.8733 2.0321
v  0.3892 6.5301 -1.6673
v  0.9352 6.4445 -1.6122
v  2.6081 4.2937 -1.0294
v  3.2681 3.3830 -0.8544
v  2.5050 3.5503 -1.1259
v  3.9208 2.5406 1.3223
v  2.9780 0.8613 1.9684
v  3.7799 1.8324 1.3379
v  1.0693 7.7177 -1.8770
v  0.8620 7.3511 -2.4021
v  2.3102 3.2953 2.4312
v  3.5320 3.3805 1.7282
v  2.8427 4.0154 1.9175
v  3.8462 3.6442 0.0027
v  3.9415 1.9369 0.5205
v  -3.2270 3.0094 0.5148
v  -2.8690 2.6297 1.2481
v  -2.8453 3.6483 1.1094
v  1.8418 5.1176 0.6272
v  2.9408 4.6948 0.2850
v  1.9914 4.8968 -0.2699
v  -2.9028 2.2652 -0.2461
v  -2.2481 1.3550 0.9446
v  -2.4657 1.8890 1.3761
v  -0.7611 5.5798 -0.1969
v  -0.4905 4.8437 0.1094
v  -2.2453 5.6722 -0.9923
v  -1.3894 5.7674 -2.8203
v  -2.9966 3.6032 -0.0002
v  -2.1257 3.9019 -0.9745
v  -2.3255 2.8967 -1.2174
v  -1.9136 5.3151 -1.0713
v  -1.5883 7.6762 -2.8721
v  -1.9149 6.2190 -0.4004
v  -1.0176 6.9380 -0.5253
v  -2.0337 6.4708 0.4289
v  -1.2586 6.2442 -0.7761
v  -3.3062 5.9321 0.2729
v  -2.7591 6.0804 1.0778
v  -3.1909 5.2649 1.6328
v  -3.1414 5.3307 -0.0651
v  3.7025 2.6436 -0.6697
v  -1.4603 6.0901 1.2603
v  -2.2215 5.6899 1.8433
v  -2.2787 1.4391 -0.2698
v  -0.5334 1.7258 2.0880
v  -1.0743 -0.0033 -0.5530
v  2.2868 0.0024 -1.1102
v  2.2935 0.0041 -0.1401
v  -0.0870 -0.0006 -1.5171
v  1.7780 4.8826 1.5450
v  1.3880 4.3201 2.1158
v  -2.1982 0.0041 1.5064
v  -2.0525 7.1836 -2.5786
v  0.6635 3.9696 -1.3724
v  -1.2693 1.1892 -0.4727
v  -2.0708 3.6586 1.6407
v  -1.8499 2.8786 2.0663
v  3.7172 -0.0028 1.0833
v  3.1967 0.0012 1.7258
v  -2.1236 0.1691 -0.2655
v  3.2326 4.3333 1.2884
v  1.3999 1.8398 2.8722
v  2.8761 2.3464 2.3373
v  1.8752 2.6823 2.7653
v  0.3030 2.6747 2.7514
v  0.5559 1.5950 2.8634
v  1.1646 2.9930 2.7900
v  0.4137 4.6385 -0.2600
v  -2.4078 6.0437 -0.7881
v  -1.6256 0.1988 2.0095
v  -2.0367 6.5242 -1.8896
v  -2.7859 4.7979 2.2485
v  -0.3000 6.4621 -2.9866
v  -0.4545 4.1798 -1.3008
v  1.4652 4.2744 -1.0090
v  -0.1715 7.2382 -2.8182
v  -1.3370 5.4843 1.0846
v  -2.1517 4.2068 2.3239
v  -1.6161 4.3679 1.7372
v  3.4313 -0.0018 0.2497
v  -0.0026 3.1158 2.1542
v  -1.8303 2.2400 1.9406
v  1.2916 1.9993 -2.1231
v  4.1270 1.2030 0.0665
v  0.4725 7.1933 -2.3990
v  1.6748 -0.0006 2.1955
v  -1.5713 1.9851 -1.3829
v  -0.7967 -0.0007 1.9029
v  -1.2561 0.6244 0.3402
v  -1.4867 6.4959 -2.6708
v  -0.9496 7.0399 -2.2784
v  -1.8836 6.9535 -1.6688
v  0.8742 6.5809 -1.2440
# 148 vertices

vn -0.2497 0.9085 -0.3351
vn 0.2780 -0.3320 0.9014
vn 0.3435 -0.3046 0.8884
vn 0.3753 -0.3088 0.8739
vn -0.5897 0.8073 -0.0224
vn -0.5565 0.8288 -0.0580
vn -0.5530 0.8309 -0.0616
vn -0.0630 0.7582 0.6489
vn -0.0731 0.4281 0.9008
vn -0.2354 0.8167 0.5269
vn 0.0613 -0.0092 -0.9981
vn 0.0405 -0.2705 -0.9619
vn -0.1736 0.1086 -0.9788
vn 0.3624 0.2196 -0.9058
vn 0.5938 -0.0635 -0.8021
vn 0.4103 0.3098 -0.8577
vn -0.8861 -0.4541 0.0929
vn 0.6096 -0.3437 -0.7144
vn 0.8338 -0.2617 -0.4862
vn 0.5807 -0.5089 -0.6354
vn 0.0467 0.1574 -0.9864
vn -0.0571 0.0609 -0.9965
vn -0.1732 -0.0499 -0.9836
vn 0.4368 -0.5501 -0.7117
vn 0.3517 -0.1483 -0.9243
vn -0.9809 -0.1355 -0.1399
vn 0.0545 -0.4022 -0.9139
vn 0.0498 -0.3514 -0.9349
vn -0.1252 0.6331 0.7639
vn -0.1330 0.6106 0.7807
vn -0.1206 0.6459 0.7538
vn -0.2664 0.8215 -0.5041
vn 0.3864 0.1954 -0.9014
vn 0.4919 0.1900 -0.8497
vn 0.2065 0.0730 -0.9757
vn 0.9749 0.1623 0.1522
vn 0.1839 0.2814 -0.9418
vn 0.9756 -0.0802 -0.2041
vn 0.9804 -0.0721 -0.1835
vn 0.9733 -0.0839 -0.2135
vn -0.8986 -0.0427 -0.4366
vn -0.7612 -0.2735 -0.5880
vn -0.8812 -0.2726 -0.3862
vn 0.2440 0.4884 0.8378
vn 0.1924 0.4532 0.8704
vn 0.2993 0.5355 0.7897
vn -0.2147 0.5352 0.8170
vn -0.0356 -0.6915 -0.7215
vn 0.0094 -0.6932 -0.7207
vn -0.0262 -0.6540 -0.7561
vn 0.3288 0.5334 -0.7793
vn 0.6131 0.2816 -0.7382
vn 0.2377 0.2777 -0.9308
vn 0.9248 0.0230 0.3798
vn 0.4332 -0.2095 0.8766
vn 0.8165 -0.1430 0.5593
vn 0.9746 -0.1391 -0.1755
vn 0.9937 -0.0912 0.0647
vn 0.9511 -0.1557 -0.2668
vn 0.4311 0.8027 0.4121
vn 0.3077 0.3498 0.8848
vn 0.7589 0.2733 0.5910
vn 0.4147 0.5028 0.7584
vn 0.9000 0.3833 -0.2078
vn 0.9917 -0.0780 -0.1025
vn -0.9815 0.1900 0.0215
vn -0.6933 0.0272 0.7201
vn -0.7869 0.2029 0.5828
vn 0.0227 0.9984 0.0513
vn 0.5493 0.8290 -0.1048
vn 0.0900 0.9123 -0.3996
vn -0.8457 -0.5289 0.0712
vn -0.8568 -0.5092 0.0819
vn -0.8727 -0.4682 0.1384
vn 0.8688 0.1194 -0.4805
vn 0.8815 0.1976 -0.4288
vn 0.8814 0.1962 -0.4297
vn -0.8337 -0.1646 -0.5271
vn -0.9235 0.0282 -0.3826
vn -0.8778 -0.2255 -0.4227
vn -0.7364 -0.4810 -0.4758
vn -0.4656 -0.6392 -0.6121
vn -0.6197 0.1340 -0.7733
vn -0.5103 0.3706 -0.7760
vn 0.5187 -0.8484 -0.1054
vn 0.2302 -0.8943 -0.3837
vn 0.3368 -0.8939 -0.2956
vn -0.2776 0.7872 -0.5507
vn -0.5060 0.7152 0.4822
vn -0.4388 0.7328 0.5201
vn -0.3077 0.7531 0.5815
vn -0.1114 0.9933 0.0300
vn -0.0573 0.9530 -0.2976
vn -0.2174 0.9447 -0.2454
vn -0.1516 0.9680 -0.2000
vn -0.4777 0.8768 0.0548
vn -0.4099 0.8192 0.4012
vn -0.9190 0.3940 -0.0115
vn 0.8324 -0.0156 -0.5539
vn 0.0721 0.9197 0.3861
vn -0.2794 0.7436 0.6074
vn -0.6130 -0.4444 -0.6533
vn -0.6375 -0.4342 -0.6364
vn -0.5180 -0.5799 -0.6288
vn -0.0305 0.7290 -0.6838
vn -0.4843 -0.1350 0.8644
vn -0.4475 -0.4917 0.7470
vn -0.5869 -0.2144 0.7807
vn -0.9403 0.1214 -0.3179
vn 0.0009 -1.0000 0.0018
vn -0.0011 -1.0000 -0.0033
vn 0.0020 -1.0000 0.0026
vn -0.9174 0.2013 -0.3433
vn -0.8856 0.0232 -0.4639
vn -0.5616 0.5334 0.6325
vn 0.0243 0.8783 0.4776
vn 0.9675 -0.0925 -0.2353
vn -0.1174 0.6246 0.7721
vn 0.0059 -1.0000 0.0026
vn -0.6724 0.2109 -0.7095
vn 0.0934 0.5066 -0.8571
vn 0.1939 0.4008 -0.8954
vn -0.6116 -0.2982 -0.7328
vn -0.6059 -0.2735 -0.7470
vn -0.4672 -0.1136 -0.8768
vn -0.3636 0.3687 0.8555
vn -0.3123 0.1221 0.9421
vn -0.4357 -0.2140 -0.8743
vn -0.4406 -0.1933 -0.8767
vn -0.4331 -0.2246 -0.8729
vn 0.7610 -0.4175 0.4967
vn 0.8451 -0.4083 0.3450
vn 0.7049 -0.4171 0.5737
vn -0.1872 -0.9775 -0.0971
vn -0.0407 -0.9989 -0.0220
vn 0.0511 -0.9977 0.0437
vn 0.0199 0.1288 -0.9915
vn -0.0411 0.1865 -0.9816
vn 0.1352 0.0225 -0.9906
vn 0.9840 -0.1783 -0.0065
vn 0.6559 0.6703 0.3472
vn 0.1678 -0.1310 0.9771
vn 0.5350 -0.0301 0.8443
vn 0.2659 0.1340 0.9546
vn -0.4510 0.2560 0.8550
vn -0.2500 -0.2013 0.9471
vn -0.0172 0.3123 0.9498
vn -0.6227 0.4481 -0.6415
vn -0.7366 0.3948 -0.5491
vn -0.7100 0.4090 -0.5733
vn -0.2410 -0.4920 -0.8366
vn 0.0069 0.9731 -0.2304
vn -0.7462 -0.4175 -0.5186
vn 0.4213 0.6570 -0.6251
vn -0.3791 -0.8389 -0.3905
vn -0.8216 -0.0257 -0.5695
vn -0.7835 0.1540 -0.6020
vn -0.7625 0.1453 -0.6304
vn -0.5810 0.7179 0.3835
vn -0.7701 -0.3920 -0.5033
vn -0.9793 0.1956 -0.0521
vn -0.9929 0.1138 0.0343
vn -0.9876 -0.0057 0.1566
vn -0.2334 0.7575 0.6097
vn -0.5809 0.4174 0.6988
vn -0.0783 -0.0023 -0.9969
vn -0.9368 0.0847 0.3394
vn 0.8049 -0.4312 0.4077
vn 0.7861 -0.4818 0.3871
vn 0.8431 -0.2814 0.4583
vn -0.0327 0.5098 -0.8597
vn -0.4877 0.8002 -0.3490
vn -0.4898 0.7971 -0.3532
vn -0.4549 0.8433 -0.2864
vn 0.0206 0.6607 -0.7504
vn 0.8492 -0.2423 0.4691
vn 0.7262 0.2288 0.6484
vn 0.6733 0.2467 0.6970
vn 0.6359 0.2647 0.7249
vn 0.9330 0.2876 0.2163
vn 0.8922 0.3553 0.2787
vn 0.8123 0.4520 0.3686
vn 0.5840 0.3667 0.7242
vn 0.8172 0.2683 0.5101
vn -0.0018 -1.0000 0.0008
vn -0.0024 -1.0000 -0.0006
vn 0.3841 -0.6871 -0.6167
vn 0.4738 -0.4199 -0.7741
vn -0.4365 0.4187 0.7963
vn -0.3890 -0.3329 0.8590
vn -0.4428 -0.1834 -0.8777
vn -0.0321 0.0291 -0.9991
vn 0.3716 -0.7576 -0.5366
vn 0.4905 -0.8435 -0.2188
vn 0.2409 -0.7070 -0.6649
vn 0.8453 0.2441 -0.4752
vn 0.9003 0.1421 -0.4115
vn 0.9419 0.0292 -0.3347
vn -0.2528 0.9609 -0.1130
vn 0.1838 0.6059 -0.7740
vn 0.3423 0.4501 -0.8248
vn 0.2774 0.5190 -0.8085
vn -0.6879 0.4460 -0.5726
vn -0.7595 0.4378 -0.4811
vn -0.5758 0.4474 -0.6843
vn -0.7159 0.2423 0.6548
vn 0.1749 -0.6598 -0.7308
vn -0.4832 -0.4341 0.7603
vn 0.9569 0.2361 0.1692
vn 0.0073 0.9917 0.1283
vn 0.8683 0.0662 -0.4916
vn -0.0030 -0.9998 0.0189
vn -0.3530 -0.6577 -0.6654
vn 0.0313 -0.7473 -0.6638
vn -0.1585 -0.7688 -0.6196
vn -0.2692 -0.0334 -0.9625
vn -0.1167 0.2412 0.9634
vn -0.0114 -0.8607 -0.5090
vn -0.5242 0.8467 -0.0911
vn 0.1984 0.9776 0.0704
vn -0.1944 -0.0522 -0.9795
vn -0.3106 -0.0305 -0.9500
vn -0.3850 -0.3890 0.8369
vn -0.4354 -0.3619 0.8243
vn -0.4107 -0.3755 0.8309
vn -0.1824 0.4327 -0.8829
vn 0.6640 0.1670 0.7289
vn -0.4590 0.4388 -0.7725
vn 0.1921 0.4540 0.8701
vn 0.0728 0.6924 -0.7178
vn 0.1815 0.0140 -0.9833
vn 0.1787 0.0071 -0.9839
vn -0.6374 0.1635 0.7530
vn -0.6265 0.1573 0.7634
vn -0.4445 0.0595 0.8938
vn 0.8827 -0.3972 0.2512
vn -0.8145 -0.5056 0.2847
vn -0.0274 -0.9723 0.2321
vn -0.0037 -0.9995 0.0319
vn -0.9690 -0.2443 -0.0377
vn -0.8008 0.3552 -0.4822
vn -0.6312 -0.4332 -0.6434
vn -0.7582 -0.1639 -0.6311
vn -0.8535 -0.1340 -0.5036
vn 0.2630 0.7195 0.6427
vn 0.2047 0.6737 0.7101
vn 0.1621 0.7553 0.6351
vn 0.2551 -0.1593 0.9537
vn -0.0752 -0.3149 0.9461
vn -0.4203 0.6510 0.6322
vn -0.3622 0.9164 -0.1701
vn -0.2468 0.9107 -0.3311
vn -0.3718 0.9152 -0.1554
vn 0.7878 -0.0183 0.6157
vn 0.1815 0.0203 0.9832
vn -0.8473 -0.4426 -0.2937
vn 0.3678 -0.0909 0.9254
vn -0.4543 -0.0362 -0.8901
vn 0.1642 0.9849 0.0549
vn 0.2120 0.4058 0.8890
vn -0.8649 -0.4831 0.1362
vn -0.8748 -0.4421 0.1982
vn 0.6319 -0.4871 0.6029
vn 0.5141 -0.4305 0.7419
vn 0.5874 -0.4665 0.6613
vn -0.0908 -0.1916 -0.9773
vn 0.9666 -0.1098 -0.2315
vn -0.7205 -0.5878 -0.3679
vn -0.7980 -0.6023 -0.0216
vn 0.3333 0.6217 0.7089
vn 0.3146 0.9263 0.2071
vn -0.5052 0.7727 -0.3843
vn 0.0471 -0.9019 -0.4294
vn 0.6986 -0.5154 0.4963
vn 0.2474 -0.6251 -0.7403
vn 0.7413 0.1552 0.6530
vn 0.7500 0.1366 0.6471
vn 0.8040 -0.0023 0.5946
vn -0.9496 0.3076 0.0600
vn -0.9463 0.3219 0.0300
vn -0.9094 0.3935 -0.1347
vn 0.0201 -0.1616 -0.9867
vn -0.4049 -0.6688 0.6235
vn -0.7783 0.2505 0.5757
vn 0.5537 -0.2411 0.7971
vn 0.6041 -0.6547 0.4543
vn 0.6210 -0.2917 0.7275
vn -0.9479 0.2189 0.2313
vn 0.6157 -0.7326 0.2903
vn 0.4438 -0.8960 -0.0155
vn -0.0065 -1.0000 0.0010
vn -0.4223 -0.9012 0.0981
vn -0.6311 -0.7714 0.0812
vn -0.6611 -0.7406 0.1203
vn -0.1428 -0.8575 0.4943
vn 0.4570 -0.8065 -0.3750
vn -0.1072 0.6818 0.7237
vn 0.7923 -0.5087 -0.3368
vn 0.7957 -0.5179 -0.3141
vn 0.7987 -0.5270 -0.2905
vn -0.2514 -0.9660 -0.0606
vn -0.2479 -0.9671 -0.0580
vn -0.2464 -0.9675 -0.0570
vn -0.5704 0.7168 0.4010
vn 0.5748 0.2775 -0.7698
vn -0.8293 -0.3638 -0.4242
vn -0.4291 0.9011 -0.0627
vn -0.3386 -0.4122 0.8458
vn 0.6576 -0.6057 0.4480
vn 0.8194 0.2337 0.5234
vn 0.6835 0.2621 0.6813
vn -0.9492 -0.1351 0.2843
vn -0.2439 -0.9682 -0.0551
vn -0.5992 0.7427 0.2990
vn 0.3042 0.6644 0.6827
vn -0.1359 -0.8512 0.5070
vn -0.2803 -0.9208 0.2711
vn 0.8003 -0.5327 -0.2751
vn -0.3737 -0.0345 -0.9269
vn 0.3672 0.5877 0.7210
vn -0.1267 -0.7810 0.6116
vn -0.9976 0.0477 0.0493
vn 0.5187 0.0683 -0.8522
vn 0.1789 0.3109 0.9335
vn 0.2540 0.8243 0.5060
vn 0.2428 0.8369 0.4906
vn -0.7213 0.3624 -0.5902
vn 0.8855 0.2463 -0.3939
vn 0.9804 -0.0645 0.1863
# 329 vertex normals

vt 0.0000 0.0000 0.0000
# 1 texture coords

o bunny
g bunny
f 1/1/1 2/1/1 3/1/1 
f 4/1/2 5/1/3 6/1/4 
f 7/1/5 8/1/6 9/1/7 
f 10/1/8 11/1/9 12/1/10 
f 1/1/11 13/1/12 14/1/13 
f 15/1/14 16/1/15 3/1/16 
f 17/1/17 18/1/17 19/1/17 
f 20/1/18 21/1/19 22/1/20 
f 23/1/21 24/1/22 25/1/23 
f 26/1/24 27/1/25 20/1/18 
f 28/1/26 29/1/26 30/1/26 
f 27/1/25 31/1/27 32/1/28 
f 33/1/29 34/1/30 29/1/31 
f 35/1/32 36/1/32 37/1/32 
f 38/1/33 39/1/34 40/1/35 
f 41/1/36 42/1/36 43/1/36 
f 44/1/37 24/1/22 23/1/21 
f 38/1/38 45/1/39 46/1/40 
f 47/1/41 48/1/42 19/1/43 
f 49/1/44 50/1/45 51/1/46 
f 52/1/47 53/1/47 54/1/47 
f 55/1/48 56/1/49 39/1/50 
f 57/1/51 58/1/52 59/1/53 
f 60/1/54 61/1/55 62/1/56 
f 63/1/57 56/1/58 64/1/59 
f 62/1/60 42/1/60 41/1/60 
f 65/1/61 66/1/62 67/1/63 
f 68/1/64 60/1/54 69/1/65 
f 70/1/66 71/1/67 72/1/68 
f 73/1/69 74/1/70 75/1/71 
f 76/1/72 77/1/73 78/1/74 
f 57/1/51 68/1/64 58/1/52 
f 79/1/75 80/1/76 39/1/77 
f 81/1/78 25/1/79 82/1/80 
f 83/1/81 48/1/42 84/1/82 
f 14/1/13 85/1/83 84/1/84 
f 45/1/85 38/1/86 86/1/87 
f 87/1/88 44/1/88 23/1/88 
f 88/1/89 51/1/90 89/1/91 
f 90/1/92 51/1/93 88/1/94 
f 46/1/95 88/1/95 91/1/95 
f 92/1/96 93/1/97 90/1/92 
f 47/1/98 94/1/98 95/1/98 
f 68/1/64 69/1/65 96/1/99 
f 97/1/100 93/1/97 98/1/101 
f 20/1/18 22/1/20 26/1/24 
f 76/1/102 85/1/103 99/1/104 
f 40/1/105 14/1/13 84/1/84 
f 100/1/106 28/1/107 54/1/108 
f 101/1/109 35/1/109 37/1/109 
f 102/1/110 103/1/111 104/1/112 
f 83/1/113 76/1/114 70/1/66 
f 75/1/71 74/1/70 57/1/51 
f 98/1/101 93/1/97 94/1/115 
f 105/1/116 73/1/69 12/1/10 
f 91/1/117 38/1/38 46/1/40 
f 106/1/118 67/1/63 105/1/116 
f 104/1/112 103/1/111 107/1/119 
f 23/1/120 108/1/120 87/1/120 
f 109/1/121 2/1/122 1/1/11 
f 13/1/123 36/1/124 110/1/125 
f 111/1/126 71/1/67 112/1/127 
f 91/1/128 55/1/129 39/1/130 
f 113/1/131 42/1/132 114/1/133 
f 68/1/64 57/1/51 74/1/70 
f 59/1/53 58/1/52 15/1/14 
f 115/1/134 101/1/135 34/1/136 
f 104/1/137 37/1/138 36/1/139 
f 102/1/140 26/1/140 103/1/140 
f 106/1/118 105/1/116 12/1/10 
f 68/1/64 74/1/70 116/1/141 
f 117/1/142 118/1/143 119/1/144 
f 120/1/145 121/1/146 122/1/147 
f 3/1/148 32/1/149 1/1/150 
f 83/1/113 85/1/83 76/1/114 
f 36/1/151 32/1/28 31/1/27 
f 123/1/152 73/1/69 75/1/71 
f 70/1/66 72/1/68 83/1/113 
f 32/1/153 36/1/124 13/1/123 
f 7/1/154 63/1/154 64/1/154 
f 37/1/155 104/1/155 101/1/155 
f 124/1/156 95/1/157 92/1/158 
f 125/1/159 30/1/159 107/1/159 
f 126/1/160 81/1/78 124/1/156 
f 18/1/161 94/1/162 19/1/163 
f 111/1/126 11/1/9 10/1/8 
f 51/1/90 9/1/164 89/1/91 
f 94/1/115 127/1/165 98/1/101 
f 15/1/14 3/1/16 2/1/122 
f 86/1/166 38/1/33 40/1/35 
f 34/1/167 33/1/167 115/1/167 
f 46/1/168 45/1/169 128/1/170 
f 40/1/105 129/1/171 14/1/13 
f 107/1/172 29/1/173 34/1/174 
f 130/1/175 123/1/152 75/1/71 
f 128/1/170 131/1/176 46/1/168 
f 132/1/177 133/1/178 134/1/179 
f 79/1/180 10/1/181 80/1/182 
f 124/1/156 81/1/78 95/1/157 
f 132/1/177 10/1/183 49/1/184 
f 121/1/146 4/1/2 117/1/142 
f 48/1/42 83/1/81 19/1/43 
f 68/1/64 96/1/99 58/1/52 
f 114/1/185 107/1/119 135/1/186 
f 103/1/187 22/1/20 135/1/188 
f 66/1/62 118/1/143 60/1/54 
f 11/1/9 111/1/126 112/1/127 
f 14/1/13 109/1/121 1/1/11 
f 12/1/10 136/1/189 106/1/118 
f 137/1/190 28/1/107 100/1/106 
f 8/1/191 55/1/129 91/1/128 
f 138/1/192 32/1/192 3/1/192 
f 24/1/193 82/1/194 25/1/195 
f 44/1/196 131/1/197 24/1/198 
f 124/1/199 92/1/96 88/1/94 
f 41/1/200 139/1/201 21/1/202 
f 89/1/203 8/1/204 91/1/205 
f 65/1/61 67/1/63 122/1/147 
f 94/1/115 18/1/206 127/1/165 
f 6/1/4 61/1/55 118/1/143 
f 132/1/177 134/1/179 10/1/183 
f 67/1/63 106/1/118 122/1/147 
f 56/1/49 55/1/48 140/1/207 
f 109/1/121 123/1/152 130/1/175 
f 106/1/118 136/1/189 120/1/145 
f 34/1/136 104/1/112 107/1/119 
f 81/1/78 48/1/42 95/1/157 
f 137/1/190 112/1/127 78/1/208 
f 49/1/209 10/1/181 79/1/180 
f 62/1/210 41/1/210 69/1/210 
f 41/1/211 43/1/211 139/1/211 
f 136/1/189 100/1/106 120/1/145 
f 123/1/152 109/1/121 40/1/105 
f 141/1/212 107/1/119 114/1/185 
f 142/1/213 13/1/214 110/1/215 
f 100/1/106 136/1/189 11/1/9 
f 101/1/216 115/1/216 35/1/216 
f 114/1/217 42/1/217 62/1/217 
f 138/1/218 27/1/218 32/1/218 
f 8/1/6 89/1/219 9/1/7 
f 63/1/220 7/1/220 9/1/220 
f 86/1/166 84/1/221 81/1/222 
f 17/1/223 133/1/224 127/1/225 
f 7/1/226 64/1/226 140/1/226 
f 121/1/146 120/1/145 100/1/106 
f 132/1/177 98/1/227 133/1/178 
f 89/1/203 91/1/205 88/1/228 
f 96/1/99 69/1/65 21/1/19 
f 50/1/45 9/1/229 51/1/46 
f 21/1/202 69/1/230 41/1/200 
f 26/1/231 102/1/232 36/1/139 
f 143/1/233 54/1/234 30/1/235 
f 42/1/132 113/1/131 43/1/236 
f 28/1/237 144/1/237 29/1/237 
f 73/1/69 123/1/152 12/1/10 
f 52/1/238 143/1/239 141/1/212 
f 103/1/111 135/1/186 107/1/119 
f 92/1/240 95/1/240 94/1/240 
f 1/1/150 32/1/149 13/1/241 
f 108/1/242 23/1/243 145/1/244 
f 92/1/96 90/1/92 88/1/94 
f 11/1/9 136/1/189 12/1/10 
f 109/1/121 59/1/53 2/1/122 
f 146/1/245 44/1/246 87/1/247 
f 141/1/248 4/1/2 53/1/249 
f 54/1/250 28/1/250 30/1/250 
f 115/1/251 33/1/252 144/1/253 
f 98/1/227 132/1/177 97/1/254 
f 16/1/15 20/1/18 27/1/25 
f 122/1/147 117/1/142 119/1/144 
f 106/1/118 120/1/145 122/1/147 
f 57/1/51 59/1/53 130/1/175 
f 142/1/213 99/1/104 85/1/103 
f 52/1/255 141/1/248 53/1/249 
f 132/1/177 49/1/184 97/1/254 
f 108/1/242 145/1/244 126/1/160 
f 101/1/135 104/1/112 34/1/136 
f 116/1/141 67/1/63 66/1/62 
f 137/1/190 100/1/106 112/1/127 
f 110/1/256 35/1/256 144/1/256 
f 5/1/3 141/1/248 114/1/257 
f 35/1/258 110/1/125 36/1/124 
f 6/1/4 5/1/3 61/1/55 
f 40/1/105 80/1/259 123/1/152 
f 116/1/141 73/1/69 105/1/116 
f 30/1/260 125/1/260 143/1/260 
f 16/1/15 15/1/14 58/1/52 
f 70/1/261 78/1/74 71/1/262 
f 111/1/263 10/1/264 134/1/265 
f 73/1/69 116/1/141 74/1/70 
f 86/1/166 40/1/35 84/1/221 
f 60/1/54 62/1/56 69/1/65 
f 72/1/68 71/1/67 111/1/126 
f 14/1/13 142/1/266 85/1/83 
f 131/1/197 128/1/267 24/1/198 
f 100/1/106 11/1/9 112/1/127 
f 21/1/19 16/1/15 96/1/99 
f 82/1/80 86/1/268 81/1/78 
f 76/1/72 99/1/269 77/1/73 
f 70/1/261 76/1/72 78/1/74 
f 146/1/245 131/1/270 44/1/246 
f 49/1/271 90/1/92 97/1/100 
f 45/1/85 86/1/87 82/1/194 
f 21/1/19 20/1/18 16/1/15 
f 145/1/244 25/1/79 81/1/78 
f 116/1/141 66/1/62 68/1/64 
f 29/1/173 107/1/172 30/1/272 
f 31/1/273 26/1/273 36/1/273 
f 67/1/63 116/1/141 105/1/116 
f 111/1/263 134/1/265 133/1/274 
f 84/1/84 85/1/83 83/1/113 
f 99/1/104 142/1/213 110/1/215 
f 140/1/207 64/1/275 56/1/49 
f 50/1/276 63/1/277 9/1/278 
f 147/1/279 126/1/280 124/1/281 
f 139/1/282 135/1/282 21/1/282 
f 78/1/208 77/1/283 28/1/107 
f 54/1/234 143/1/233 52/1/284 
f 114/1/257 62/1/56 61/1/55 
f 49/1/285 79/1/286 50/1/287 
f 108/1/288 126/1/280 147/1/279 
f 56/1/289 79/1/286 39/1/290 
f 113/1/291 114/1/185 135/1/186 
f 122/1/147 121/1/146 117/1/142 
f 72/1/292 19/1/293 83/1/294 
f 125/1/295 107/1/295 143/1/295 
f 23/1/243 25/1/79 145/1/244 
f 82/1/194 128/1/296 45/1/85 
f 29/1/31 144/1/297 33/1/29 
f 26/1/24 22/1/20 103/1/187 
f 139/1/298 43/1/299 135/1/300 
f 99/1/301 110/1/302 77/1/303 
f 60/1/54 118/1/143 61/1/55 
f 147/1/304 124/1/304 88/1/304 
f 123/1/152 80/1/259 12/1/10 
f 54/1/108 53/1/249 121/1/146 
f 142/1/266 14/1/13 13/1/12 
f 130/1/175 59/1/53 109/1/121 
f 75/1/71 57/1/51 130/1/175 
f 3/1/16 27/1/25 138/1/305 
f 55/1/306 8/1/306 140/1/306 
f 115/1/251 144/1/253 35/1/307 
f 128/1/296 82/1/194 24/1/193 
f 121/1/146 100/1/106 54/1/108 
f 92/1/96 94/1/115 93/1/97 
f 18/1/308 17/1/223 127/1/225 
f 65/1/61 122/1/147 119/1/144 
f 16/1/15 58/1/52 96/1/99 
f 145/1/244 81/1/78 126/1/160 
f 118/1/143 117/1/142 6/1/4 
f 50/1/287 79/1/286 148/1/309 
f 88/1/310 46/1/310 146/1/310 
f 80/1/259 10/1/8 12/1/10 
f 148/1/311 63/1/277 50/1/276 
f 21/1/19 135/1/188 22/1/20 
f 94/1/162 47/1/312 19/1/163 
f 110/1/302 28/1/313 77/1/303 
f 66/1/62 60/1/54 68/1/64 
f 147/1/314 87/1/314 108/1/314 
f 46/1/315 131/1/270 146/1/245 
f 111/1/316 17/1/317 72/1/292 
f 27/1/25 26/1/24 31/1/27 
f 121/1/146 53/1/249 4/1/2 
f 90/1/92 93/1/97 97/1/100 
f 78/1/208 28/1/107 137/1/190 
f 65/1/61 118/1/143 66/1/62 
f 17/1/317 19/1/293 72/1/292 
f 65/1/61 119/1/144 118/1/143 
f 43/1/299 113/1/318 135/1/300 
f 81/1/222 84/1/221 48/1/319 
f 16/1/15 27/1/25 3/1/16 
f 109/1/121 14/1/13 129/1/171 
f 51/1/46 90/1/320 49/1/44 
f 111/1/316 133/1/321 17/1/317 
f 144/1/322 28/1/322 110/1/322 
f 129/1/171 40/1/105 109/1/121 
f 36/1/139 102/1/232 104/1/137 
f 91/1/323 39/1/34 38/1/33 
f 95/1/157 48/1/42 47/1/41 
f 4/1/2 141/1/248 5/1/3 
f 71/1/67 78/1/208 112/1/127 
f 133/1/324 98/1/324 127/1/324 
f 147/1/325 88/1/326 146/1/245 
f 143/1/239 107/1/119 141/1/212 
f 59/1/53 15/1/14 2/1/122 
f 4/1/2 6/1/4 117/1/142 
f 147/1/325 146/1/245 87/1/247 
f 140/1/327 8/1/327 7/1/327 
f 5/1/3 114/1/257 61/1/55 
f 39/1/77 80/1/76 40/1/328 
f 148/1/309 79/1/286 56/1/289 
f 63/1/57 148/1/329 56/1/58 
# 292 faces

